HIERARCHY
ROOT Hips
{
	OFFSET	0.00	0.00	0.00
	CHANNELS 6 Xposition Yposition Zposition Zrotation Xrotation Yrotation
	JOINT LeftHip
	{
		OFFSET	 3.430000	 0.000000	 0.000000
		CHANNELS 3 Zrotation Xrotation Yrotation
		JOINT LeftKnee
		{
			OFFSET	 0.000000	-18.469999	 0.000000
			CHANNELS 3 Zrotation Xrotation Yrotation
			JOINT LeftAnkle
			{
				OFFSET	 0.000000	-17.950001	 0.000000
				CHANNELS 3 Zrotation Xrotation Yrotation
				End Site 
				{
					OFFSET	 0.000000	-3.119996	 0.000000
				}
			}
		}
	}
	JOINT RightHip
	{
		OFFSET	-3.430000	 0.000000	 0.000000
		CHANNELS 3 Zrotation Xrotation Yrotation
		JOINT RightKnee
		{
			OFFSET	 0.000000	-18.809999	 0.000000
			CHANNELS 3 Zrotation Xrotation Yrotation
			JOINT RightAnkle
			{
				OFFSET	 0.000000	-17.570000	 0.000000
				CHANNELS 3 Zrotation Xrotation Yrotation
				End Site 
				{
					OFFSET	 0.000000	-3.250000	 0.000000
				}
			}
		}
	}
	JOINT Chest
	{
		OFFSET	 0.000000	 4.570000	 0.000000
		CHANNELS 3 Zrotation Xrotation Yrotation
		JOINT LeftCollar
		{
			OFFSET	 1.060000	 15.330000	 1.760000
			CHANNELS 3 Zrotation Xrotation Yrotation
			JOINT LeftShoulder
			{
				OFFSET	 5.810000	 0.000000	 0.000000
				CHANNELS 3 Zrotation Xrotation Yrotation
				JOINT LeftElbow
				{
					OFFSET	 0.000000	-12.080000	 0.000000
					CHANNELS 3 Zrotation Xrotation Yrotation
					JOINT LeftWrist
					{
						OFFSET	 0.000000	-9.820000	 0.000000
						CHANNELS 3 Zrotation Xrotation Yrotation
						End Site 
						{
							OFFSET	 0.000000	-7.369996	 0.000000
						}
					}
				}
			}
		}
		JOINT RightCollar
		{
			OFFSET	-1.060000	 15.330000	 1.760000
			CHANNELS 3 Zrotation Xrotation Yrotation
			JOINT RightShoulder
			{
				OFFSET	-6.060000	 0.000000	 0.000000
				CHANNELS 3 Zrotation Xrotation Yrotation
				JOINT RightElbow
				{
					OFFSET	 0.000000	-11.900000	 0.000000
					CHANNELS 3 Zrotation Xrotation Yrotation
					JOINT RightWrist
					{
						OFFSET	 0.000000	-9.520000	 0.000000
						CHANNELS 3 Zrotation Xrotation Yrotation
						End Site 
						{
							OFFSET	 0.000000	-7.140012	 0.000000
						}
					}
				}
			}
		}
		JOINT Neck
		{
			OFFSET	 0.000000	 17.620001	 0.000000
			CHANNELS 3 Zrotation Xrotation Yrotation
			JOINT Head
			{
				OFFSET	 0.000000	 5.190000	 0.000000
				CHANNELS 3 Zrotation Xrotation Yrotation
				End Site 
				{
					OFFSET	 0.000000	 4.140008	 0.000000
				}
			}
		}
	}
}

MOTION
Frames: 21
Frame Time: 0.033333
-40.7065 2.1666 -47.3921 5.83839 -0.742045 56.1748 15.07 -0.109757 10.9704 -2.53544 8.84143 1.99299 -20.4416 1.74364 -1.57983 -20.9325 4.81683 -21.8476 5.42507 18.4097 -0.981748 6.19828 -8.80867 4.09852 3.4257 14.384 8.552 0 0 0 26.0077 -4.67701 46.1336 -63.223 -43.6263 -38.6805 -14.8359 -5.68012 14.1015 0 0 0 -45.923 -21.5797 -61.8416 16.7282 -44.8103 8.74418 18.1173 -28.5432 -22.9393 0 0 0 -1.78524 0.995445 29.7389 
-40.6441 2.1446 -47.4308 6.30785 -0.675164 57.3533 14.5226 0.0151466 10.4072 -2.50674 8.8291 2.11022 -20.1599 1.86197 -2.32513 -21.3037 5.39666 -21.6683 5.4882 18.5505 -1.21251 6.49153 -8.96706 3.2534 3.46828 14.3769 8.37425 0 0 0 25.8487 -4.1261 47.2784 -62.8204 -43.4426 -38.164 -13.6454 -5.51981 15.5408 0 0 0 -42.7994 -22.3336 -57.8236 20.5101 -48.2473 11.6941 19.2223 -28.2673 -19.602 0 0 0 -1.76983 1.17094 28.9192 
-40.5645 2.1241 -47.4653 6.70564 -0.669007 58.3467 14.1337 0.122778 9.81062 -2.46824 8.81687 2.18807 -19.9902 1.94416 -2.81342 -21.4919 6.06319 -21.4984 5.52992 18.5111 -1.42599 6.74447 -9.09609 2.55617 3.50114 14.1836 8.25533 0 0 0 25.623 -3.95049 47.9043 -63.1333 -43.6387 -38.0502 -15.1282 -5.58546 16.3409 0 0 0 -39.6922 -22.5101 -53.6841 24.7019 -51.5764 15.184 21.5898 -27.4779 -14.6982 0 0 0 -1.69913 1.60071 28.2671 
-40.5327 2.0542 -47.475 6.86063 -1.10879 57.846 14.2965 0.676482 10.4991 -2.44981 8.81719 2.25294 -19.8554 1.99744 -3.17243 -21.3345 6.33096 -20.0905 5.53992 18.4188 -1.61063 6.96226 -9.176 2.01753 3.55735 14.2704 9.52038 0 0 0 25.479 -4.33894 49.0828 -63.8683 -43.5626 -38.4704 -15.9469 -5.75212 16.5969 0 0 0 -37.4154 -22.3841 -50.2987 27.7034 -53.5028 17.6762 21.4754 -26.2852 -11.4426 0 0 0 -1.47976 1.9782 27.65 
-40.4774 1.9738 -47.5076 7.11901 -1.42785 58.2405 14.102 1.17053 10.5361 -2.43525 8.80894 2.39153 -19.5256 1.98902 -3.84152 -21.3595 6.91663 -18.9152 5.59311 18.3065 -1.93633 7.33734 -9.27833 1.0626 3.70692 14.3326 10.8118 0 0 0 25.621 -4.30104 52.3756 -62.6477 -43.1978 -36.9439 -15.7522 -4.93189 16.3402 0 0 0 -34.622 -21.7118 -46.7487 32.1774 -55.668 21.8166 21.0052 -24.7373 -6.30754 0 0 0 -1.24001 2.18255 26.4436 
-40.4197 1.901 -47.5252 7.49978 -1.85766 58.4991 14.2286 1.63271 10.1581 -2.44272 8.84342 2.46846 -19.4447 2.01449 -4.42344 -21.3167 7.68429 -18.1772 5.66516 18.3455 -2.2911 7.40493 -9.54939 0.277445 3.68799 14.2465 9.95152 0 0 0 23.2633 -3.86891 46.2609 -66.3134 -43.3017 -40.4441 -4.78608 -6.64213 14.9864 0 0 0 -29.1063 -21.2165 -36.8089 40.8514 -58.8317 29.2448 12.8612 -24.7401 2.10828 0 0 0 -0.748002 3.48197 26.9346 
-40.3368 1.8382 -47.5377 7.84821 -2.32646 58.13 14.5027 2.09868 10.3558 -2.43467 8.85813 2.49457 -19.4687 2.11344 -4.87312 -21.1992 8.23634 -17.2596 5.63855 18.3466 -2.46191 7.44164 -9.81907 -0.29766 3.5888 14.2007 9.29411 0 0 0 21.1541 -3.55703 39.3772 -70.2746 -43.388 -44.1955 5.17136 -8.58123 13.2336 0 0 0 -24.58 -19.226 -26.1597 50.8701 -61.3834 37.8389 4.68454 -24.5937 10.0721 0 0 0 -0.412424 4.642 27.7499 
-40.3217 1.7554 -47.5277 7.92702 -2.82859 57.2288 15.0713 2.40628 10.5493 -2.48186 8.90835 2.49987 -19.656 2.06062 -4.7782 -20.8308 8.37638 -16.4819 5.61663 18.2868 -2.67351 7.3001 -9.95199 -0.379003 3.58009 14.0741 8.69256 0 0 0 19.2513 -3.11869 32.0482 -74.5155 -43.3897 -48.1507 13.3823 -10.6867 10.7778 0 0 0 -21.862 -17.7356 -18.1304 56.9784 -62.2337 43.348 -1.91901 -24.8003 17.5724 0 0 0 -0.236033 5.60624 29.1014 
-40.3041 1.6951 -47.5051 7.87899 -3.34999 56.2238 15.7306 2.69322 10.7984 -2.52505 8.96136 2.46086 -19.8714 1.96265 -4.60491 -20.3409 8.53713 -15.8483 5.57823 18.0801 -2.78596 7.1205 -10.0347 -0.352391 3.57835 13.9791 8.15355 0 0 0 17.6096 -2.46441 24.7027 -78.7486 -43.107 -52.0646 22.1684 -12.666 8.07384 0 0 0 -20.2884 -16.1724 -12.1322 60.5055 -62.2928 46.6762 -9.5075 -24.9487 23.371 0 0 0 -0.0363016 6.49834 30.4534 
-40.3192 1.6423 -47.475 7.70698 -3.82293 55.0189 16.4069 2.95496 11.2454 -2.56818 9.01981 2.41528 -20.0848 1.86352 -4.42855 -19.8533 8.4829 -15.2365 5.52354 17.9318 -2.8306 6.8977 -10.0875 -0.23808 3.57738 14.0242 7.6096 0 0 0 16.3521 -1.44616 17.4993 -82.346 -42.4104 -55.5966 32.7568 -14.4759 5.48091 0 0 0 -19.1715 -15.2778 -7.18789 61.5051 -61.9046 47.7158 -17.6811 -25.9045 27.2066 0 0 0 0.0733665 7.10139 31.9099 
-40.3092 1.6398 -47.4599 7.67798 -3.84427 55.033 16.7122 2.75557 10.5633 -2.61247 9.06746 2.35454 -20.3172 1.76677 -4.23181 -19.636 8.65489 -15.9008 5.49931 17.8255 -2.85853 6.63327 -10.1334 -0.0922388 3.51233 13.7999 5.72488 0 0 0 15.9138 0.547725 9.59774 -85.4486 -41.8692 -58.6172 43.0387 -16.1296 3.19437 0 0 0 -18.0877 -14.5126 -2.5965 63.2963 -61.6997 49.4409 -23.6237 -27.0133 31.4508 0 0 0 -0.0194387 7.61604 33.5172 
-40.2966 1.6348 -47.4448 7.65284 -3.86918 55.0383 17.0222 2.57788 9.88861 -2.65526 9.11305 2.27219 -20.5542 1.6609 -4.02289 -19.4092 8.84217 -16.565 5.47401 17.7307 -2.88085 6.36584 -10.1986 0.0736639 3.54819 13.6403 3.84233 0 0 0 16.4835 3.33178 0.652202 -90.1663 -40.8665 -62.8386 53.0791 -18.5988 2.37711 0 0 0 -17.0136 -13.8247 1.92766 66.0438 -61.8447 51.6949 -28.0945 -28.404 35.1095 0 0 0 -0.232142 8.04596 35.1202 
-40.279 1.6373 -47.4348 7.62471 -3.89418 55.0267 17.0867 2.56917 9.89314 -2.63926 9.12289 2.23195 -20.5939 1.6475 -3.98935 -19.3067 8.95899 -16.4656 5.43826 17.5071 -2.8993 6.38282 -10.1224 0.000101581 3.55211 13.4611 3.83583 0 0 0 16.5181 3.38822 0.596543 -90.1006 -40.8574 -62.7761 53.1153 -18.5088 2.44842 0 0 0 -17.0244 -13.8056 2.00577 66.0093 -61.7887 51.6415 -28.1861 -28.34 35.007 0 0 0 -0.240398 8.12013 35.147 
-40.2589 1.6373 -47.4297 7.60015 -3.92423 54.9927 17.15 2.57337 9.89848 -2.62613 9.13657 2.21654 -20.6373 1.6276 -3.9614 -19.224 9.05101 -16.3489 5.41565 17.3091 -2.90119 6.39688 -10.0498 -0.0837856 3.53991 13.2719 3.84946 0 0 0 16.553 3.44275 0.535967 -90.0283 -40.8588 -62.7146 53.1471 -18.4156 2.51781 0 0 0 -16.986 -13.7775 2.13063 65.9272 -61.7832 51.5647 -28.2545 -28.2686 34.9205 0 0 0 -0.235366 8.20031 35.1771 
-40.2439 1.6348 -47.4272 7.58131 -3.93965 54.9596 17.1976 2.57808 9.91273 -2.61013 9.13714 2.17177 -20.6841 1.61404 -3.90935 -19.1586 9.1326 -16.2514 5.39234 17.1343 -2.89593 6.40518 -9.98957 -0.149974 3.52217 13.109 3.8473 0 0 0 16.5704 3.46095 0.525559 -89.9544 -40.8343 -62.653 53.1816 -18.325 2.57928 0 0 0 -16.9475 -13.7669 2.23782 65.8433 -61.7934 51.485 -28.3066 -28.2093 34.8375 0 0 0 -0.243253 8.25179 35.213 
-40.2288 1.6348 -47.4272 7.5612 -3.9489 54.9052 17.2341 2.59054 9.93225 -2.59787 9.14127 2.14901 -20.7236 1.58868 -3.86489 -19.1201 9.16876 -16.1675 5.36819 17.026 -2.88599 6.42048 -9.95854 -0.191485 3.50734 12.9616 3.84542 0 0 0 16.5707 3.45415 0.527158 -89.8761 -40.8367 -62.5832 53.2092 -18.2449 2.62548 0 0 0 -16.9021 -13.7623 2.33909 65.7743 -61.8202 51.4202 -28.3353 -28.1676 34.7803 0 0 0 -0.267053 8.27408 35.2752 
-40.2087 1.6348 -47.4297 7.54087 -3.95492 54.8516 17.2696 2.59883 9.95454 -2.60283 9.14597 2.13263 -20.7465 1.5667 -3.82653 -19.104 9.16732 -16.1041 5.36108 16.9728 -2.88789 6.42778 -9.93504 -0.203552 3.49213 12.8305 3.85264 0 0 0 16.5688 3.43175 0.530752 -89.8164 -40.8382 -62.5364 53.2307 -18.1678 2.66336 0 0 0 -16.8562 -13.7741 2.41715 65.7208 -61.8365 51.3697 -28.3826 -28.1343 34.7327 0 0 0 -0.287481 8.29584 35.3169 
-40.1861 1.6373 -47.4348 7.5191 -3.96163 54.7859 17.2882 2.61413 9.9878 -2.58651 9.15273 2.12213 -20.7742 1.53832 -3.79627 -19.0872 9.15403 -16.0425 5.34671 16.9464 -2.88142 6.43542 -9.93114 -0.204565 3.48778 12.7028 3.86094 0 0 0 16.5588 3.40164 0.552774 -89.7719 -40.8743 -62.4882 53.2114 -18.1071 2.66202 0 0 0 -16.8072 -13.7724 2.47716 65.7178 -61.8416 51.3668 -28.4365 -28.1035 34.6976 0 0 0 -0.306761 8.3184 35.3733 
-40.1661 1.6398 -47.4373 7.4903 -3.96475 54.7123 17.3175 2.63183 10.0275 -2.59109 9.1446 2.10942 -20.7925 1.51574 -3.75732 -19.0726 9.1276 -15.9919 5.33862 16.9282 -2.87006 6.43578 -9.92664 -0.19969 3.49545 12.6005 3.8681 0 0 0 16.5398 3.37542 0.592428 -89.7507 -40.9253 -62.4643 53.1714 -18.0509 2.61741 0 0 0 -16.773 -13.7625 2.52885 65.7531 -61.8539 51.4041 -28.4835 -28.0593 34.6645 0 0 0 -0.325115 8.35834 35.4227 
-40.146 1.6373 -47.4423 7.46466 -3.96754 54.6388 17.3377 2.65318 10.0659 -2.60058 9.12512 2.10941 -20.802 1.50741 -3.72299 -19.0631 9.09472 -15.9343 5.3286 16.9227 -2.87363 6.4521 -9.93035 -0.18558 3.50117 12.4984 3.89852 0 0 0 16.5199 3.366 0.62007 -89.7256 -40.968 -62.4441 53.1364 -18.0126 2.57509 0 0 0 -16.7321 -13.7442 2.56283 65.7592 -61.8646 51.4176 -28.5016 -28.0302 34.646 0 0 0 -0.333591 8.39436 35.4457 
-40.1309 1.6373 -47.4473 7.44732 -3.96274 54.5769 17.3525 2.67749 10.1031 -2.60715 9.10114 2.09134 -20.8132 1.49969 -3.68546 -19.0618 9.07095 -15.8882 5.3106 16.9129 -2.86219 6.46604 -9.92775 -0.18365 3.50854 12.39 3.91266 0 0 0 16.501 3.38028 0.658446 -89.708 -40.9978 -62.4253 53.1105 -17.9854 2.53032 0 0 0 -16.7135 -13.7233 2.59225 65.7407 -61.8801 51.3861 -28.5028 -28.0173 34.6198 0 0 0 -0.345652 8.44016 35.4743 
